<svg xmlns="http://www.w3.org/2000/svg" fill="none" viewBox="0 0 44 44"><path fill="currentColor" d="M8.13 16.06h5.07a.75.75 0 1 0 0-1.5H8.13a.75.75 0 1 0 0 1.5M10.68 33.78C8.11 33.76 6 34.74 6 36s2.14 2.24 4.71 2.25 4.57-1 4.58-2.19-2.05-2.27-4.61-2.28"/><path fill="currentColor" d="M44 16a15.92 15.92 0 0 0-30.5-6.37H3.89a3.84 3.84 0 0 0-3.84 3.8v26.69A3.84 3.84 0 0 0 3.89 44h13.56a3.84 3.84 0 0 0 3.83-3.83v-9.8a15.9 15.9 0 0 0 6.63 1.5h.29A15.93 15.93 0 0 0 44 16M29.51 3.76a11.6 11.6 0 0 1 3.06 5.83h-3.06zm-3-.2v6h-3.25c.74-2.95 1.95-5.09 3.25-6m0 9v7.63H23a28 28 0 0 1-.38-4.45q-.015-1.594.16-3.18zm0 10.63v5a10.66 10.66 0 0 1-2.86-5zm3 .03h2.9q-.339 1.167-.85 2.27a7.74 7.74 0 0 1-2.05 2.81zm0-3.03v-7.6h3.64q.21 1.668.23 3.35a27 27 0 0 1-.31 4.28zm6.68-7.63h4.3A13 13 0 0 1 41 16a13.1 13.1 0 0 1-.73 4.26h-4.16q.28-2.141.27-4.3c-.01-1.19-.08-2.3-.19-3.37zm3.07-3h-3.57a19.3 19.3 0 0 0-1.88-5.16 13 13 0 0 1 5.45 5.19zm-17.37-5a19.2 19.2 0 0 0-1.72 5h-3.36a12.9 12.9 0 0 1 5.08-4.94zM17.45 41H3.89a.83.83 0 0 1-.84-.83V13.43a.84.84 0 0 1 .84-.84h13.56a.84.84 0 0 1 .83.84v7.93a1.4 1.4 0 0 0-.05.36q.002.178.05.35v18a.83.83 0 0 1-.83.93m3.83-15.49q.409 1.031.95 2c-.33-.16-.64-.34-.95-.53zm12.64 2c.12-.23.24-.44.35-.68.532-1.14.954-2.33 1.26-3.55h3.18a13 13 0 0 1-4.79 4.17z"/></svg>